<?xml version="1.0" standalone="no"?>
<!DOCTYPE svg PUBLIC "-//W3C//DTD SVG 20010904//EN"
 "http://www.w3.org/TR/2001/REC-SVG-20010904/DTD/svg10.dtd">
<svg version="1.0" xmlns="http://www.w3.org/2000/svg"
 width="300.000000pt" height="300.000000pt" viewBox="0 0 300.000000 300.000000"
 preserveAspectRatio="xMidYMid meet">
<metadata>
Created by potrace 1.11, written by Peter Selinger 2001-2013
</metadata>
<g transform="translate(0.000000,300.000000) scale(0.100000,-0.100000)"
fill="#000000" stroke="none">
<path d="M748 2539 c-56 -9 -73 -30 -97 -127 -13 -48 -29 -104 -37 -124 -7
-21 -12 -38 -9 -38 2 0 -2 -21 -10 -47 -7 -27 -32 -120 -55 -208 -23 -88 -62
-239 -86 -335 -25 -96 -50 -182 -54 -191 -5 -9 -7 -18 -5 -21 3 -2 0 -20 -6
-39 -5 -19 -12 -41 -14 -49 -2 -8 -22 -87 -45 -175 -23 -88 -55 -212 -71 -275
-16 -63 -43 -166 -60 -229 -39 -144 -40 -149 -40 -190 -1 -56 18 -66 134 -67
56 -1 113 3 128 8 26 9 44 38 53 83 2 11 11 47 19 80 9 33 18 71 21 85 7 33
35 146 47 193 l10 37 296 -2 297 -3 13 -50 c7 -27 15 -59 17 -70 2 -11 16 -67
31 -125 27 -105 31 -122 40 -161 9 -40 33 -66 70 -73 47 -9 214 -6 242 5 45
16 39 60 -51 404 -140 532 -167 637 -172 658 -2 9 -6 26 -8 37 -3 11 -7 24
-10 28 -3 5 -7 19 -10 33 -5 28 -71 282 -91 352 -8 26 -12 47 -9 47 3 0 0 8
-5 18 -6 11 -12 30 -15 43 -3 13 -8 37 -11 53 -3 16 -8 33 -11 38 -3 5 -7 20
-10 33 -2 14 -16 67 -30 118 -14 50 -27 103 -30 117 -12 64 -35 108 -65 120
-32 14 -238 20 -301 9z m167 -609 c26 -102 49 -194 51 -204 2 -10 8 -33 13
-50 6 -17 12 -42 15 -56 5 -27 30 -129 68 -278 13 -51 22 -95 19 -97 -2 -3
-102 -5 -222 -5 l-217 0 25 98 c14 53 26 104 28 112 2 8 15 60 29 115 14 55
28 115 31 134 3 19 9 39 12 44 3 6 7 20 9 31 2 12 19 84 38 161 20 77 38 151
41 164 3 13 8 22 10 20 2 -3 25 -87 50 -189z"/>
<path d="M1732 2529 c-12 -5 -31 -23 -42 -41 -19 -32 -20 -53 -20 -1021 0
-657 3 -994 10 -1007 26 -48 246 -54 291 -9 18 18 19 40 19 429 l0 410 72 0
c127 0 186 -48 247 -202 16 -41 66 -198 111 -349 50 -166 90 -282 101 -294 17
-17 34 -20 132 -21 61 -1 127 2 144 7 36 11 50 41 38 87 -3 15 -8 36 -9 47 -2
11 -7 29 -11 40 -13 38 -24 71 -99 305 -89 277 -136 381 -205 449 -34 35 -45
53 -38 60 6 6 15 11 19 11 21 0 114 81 153 133 40 52 78 133 89 189 3 13 9 44
14 70 9 48 8 257 -2 293 -3 11 -10 40 -16 64 -12 48 -52 128 -90 179 -54 73
-171 141 -291 168 -39 9 -594 11 -617 3z m529 -335 c113 -34 171 -140 163
-301 -5 -124 -54 -212 -141 -254 -40 -18 -70 -23 -170 -27 l-123 -4 0 301 0
302 112 -2 c63 -1 132 -7 159 -15z"/>
</g>
</svg>
